<?xml version="1.0" standalone="no"?><!DOCTYPE svg PUBLIC "-//W3C//DTD SVG 1.1//EN" "http://www.w3.org/Graphics/SVG/1.1/DTD/svg11.dtd"><svg t="1773737277514" class="icon" viewBox="0 0 1024 1024" version="1.1" xmlns="http://www.w3.org/2000/svg" p-id="75630" xmlns:xlink="http://www.w3.org/1999/xlink" width="200" height="200"><path d="M247.466667 68.266667h537.6c59.733333 0 102.4 42.666667 102.4 102.4v691.2c0 59.733333-42.666667 102.4-102.4 102.4H247.466667c-59.733333 0-102.4-42.666667-102.4-102.4V170.666667c0-59.733333 42.666667-102.4 102.4-102.4z" fill="#FFFFFF" p-id="75631"></path><path d="M785.066667 989.866667H247.466667c-68.266667 0-128-59.733333-128-128V170.666667c0-68.266667 59.733333-128 128-128h537.6c68.266667 0 128 59.733333 128 128v691.2c0 68.266667-59.733333 128-128 128zM247.466667 93.866667c-42.666667 0-76.8 34.133333-76.8 76.8v691.2c0 42.666667 34.133333 76.8 76.8 76.8h537.6c42.666667 0 76.8-34.133333 76.8-76.8V170.666667c0-42.666667-34.133333-76.8-76.8-76.8H247.466667z" fill="#22869B" p-id="75632"></path><path d="M768 196.266667c17.066667 0 25.6 8.533333 25.6 25.6 0 8.533333-8.533333 25.6-17.066667 25.6H469.333333c-17.066667 0-25.6-8.533333-25.6-25.6 0-8.533333 8.533333-25.6 17.066667-25.6H768z m-418.133333 0c17.066667 0 25.6 8.533333 25.6 25.6 0 8.533333-8.533333 25.6-17.066667 25.6h-85.333333c-17.066667 0-25.6-8.533333-25.6-25.6 0-8.533333 8.533333-25.6 17.066666-25.6h85.333334z" fill="#A9DAE5" p-id="75633"></path><path d="M375.466667 358.4v298.666667c0 25.6-17.066667 42.666667-42.666667 42.666666h-42.666667c-25.6 0-42.666667-17.066667-42.666666-42.666666V358.4c0-25.6 17.066667-42.666667 42.666666-42.666667h42.666667c25.6 0 42.666667 17.066667 42.666667 42.666667z m204.8 0v426.666667c0 25.6-17.066667 42.666667-42.666667 42.666666h-42.666667c-25.6 0-42.666667-17.066667-42.666666-42.666666v-426.666667c0-25.6 17.066667-42.666667 42.666666-42.666667h42.666667c25.6 0 42.666667 17.066667 42.666667 42.666667z m204.8 0v170.666667c0 25.6-17.066667 42.666667-42.666667 42.666666h-42.666667c-25.6 0-42.666667-17.066667-42.666666-42.666666v-170.666667c0-25.6 17.066667-42.666667 42.666666-42.666667h42.666667c25.6 0 42.666667 17.066667 42.666667 42.666667z" fill="#29BDDB" p-id="75634"></path></svg>