<?xml version="1.0" standalone="no"?><!DOCTYPE svg PUBLIC "-//W3C//DTD SVG 1.1//EN" "http://www.w3.org/Graphics/SVG/1.1/DTD/svg11.dtd"><svg t="1773737304929" class="icon" viewBox="0 0 1024 1024" version="1.1" xmlns="http://www.w3.org/2000/svg" p-id="75938" xmlns:xlink="http://www.w3.org/1999/xlink" width="200" height="200"><path d="M247.466667 68.266667h537.6c59.733333 0 102.4 42.666667 102.4 102.4v691.2c0 59.733333-42.666667 102.4-102.4 102.4H247.466667c-59.733333 0-102.4-42.666667-102.4-102.4V170.666667c0-59.733333 42.666667-102.4 102.4-102.4z" fill="#FFFFFF" p-id="75939"></path><path d="M785.066667 989.866667H247.466667c-68.266667 0-128-59.733333-128-128V170.666667c0-68.266667 59.733333-128 128-128h537.6c68.266667 0 128 59.733333 128 128v691.2c0 68.266667-59.733333 128-128 128zM247.466667 93.866667c-42.666667 0-76.8 34.133333-76.8 76.8v691.2c0 42.666667 34.133333 76.8 76.8 76.8h537.6c42.666667 0 76.8-34.133333 76.8-76.8V170.666667c0-42.666667-34.133333-76.8-76.8-76.8H247.466667z" fill="#3471AF" p-id="75940"></path><path d="M324.266667 230.4h375.466666c25.6 0 42.666667 17.066667 42.666667 42.666667v93.866666c0 25.6-17.066667 42.666667-42.666667 42.666667H324.266667c-25.6 0-42.666667-17.066667-42.666667-42.666667V273.066667c0-25.6 17.066667-42.666667 42.666667-42.666667z" fill="#3B8EE3" p-id="75941"></path><path d="M716.8 554.666667c17.066667 0 25.6 8.533333 25.6 25.6 0 8.533333-8.533333 25.6-17.066667 25.6H315.733333c-17.066667 0-25.6-8.533333-25.6-25.6 0-8.533333 8.533333-25.6 17.066667-25.6h409.6zM563.2 708.266667c17.066667 0 25.6 8.533333 25.6 25.6 0 8.533333-8.533333 25.6-17.066667 25.6h-256c-17.066667 0-25.6-8.533333-25.6-25.6 0-8.533333 8.533333-25.6 17.066667-25.6h256z" fill="#9DC6F1" p-id="75942"></path></svg>