<?xml version="1.0" standalone="no"?><!DOCTYPE svg PUBLIC "-//W3C//DTD SVG 1.1//EN" "http://www.w3.org/Graphics/SVG/1.1/DTD/svg11.dtd"><svg t="1773737289298" class="icon" viewBox="0 0 1024 1024" version="1.1" xmlns="http://www.w3.org/2000/svg" p-id="75783" xmlns:xlink="http://www.w3.org/1999/xlink" width="200" height="200"><path d="M247.466667 68.266667h537.6c59.733333 0 102.4 42.666667 102.4 102.4v691.2c0 59.733333-42.666667 102.4-102.4 102.4H247.466667c-59.733333 0-102.4-42.666667-102.4-102.4V170.666667c0-59.733333 42.666667-102.4 102.4-102.4z" fill="#FFFFFF" p-id="75784"></path><path d="M785.066667 989.866667H247.466667c-68.266667 0-128-59.733333-128-128V170.666667c0-68.266667 59.733333-128 128-128h537.6c68.266667 0 128 59.733333 128 128v691.2c0 68.266667-59.733333 128-128 128zM247.466667 93.866667c-42.666667 0-76.8 34.133333-76.8 76.8v691.2c0 42.666667 34.133333 76.8 76.8 76.8h537.6c42.666667 0 76.8-34.133333 76.8-76.8V170.666667c0-42.666667-34.133333-76.8-76.8-76.8H247.466667z" fill="#469171" p-id="75785"></path><path d="M494.933333 460.8H768c17.066667 0 34.133333 17.066667 34.133333 34.133333v42.666667c0 17.066667-17.066667 34.133333-34.133333 34.133333H494.933333c-17.066667 0-34.133333-17.066667-34.133333-34.133333v-42.666667c0-17.066667 17.066667-34.133333 34.133333-34.133333z m-230.4 0h93.866667c17.066667 0 34.133333 17.066667 34.133333 34.133333v42.666667c0 17.066667-17.066667 34.133333-34.133333 34.133333H264.533333c-17.066667 0-34.133333-17.066667-34.133333-34.133333v-42.666667c0-17.066667 17.066667-34.133333 34.133333-34.133333z m230.4-230.4H768c17.066667 0 34.133333 17.066667 34.133333 34.133333v42.666667c0 17.066667-17.066667 34.133333-34.133333 34.133333H494.933333c-17.066667 0-34.133333-17.066667-34.133333-34.133333v-42.666667c0-17.066667 17.066667-34.133333 34.133333-34.133333z m-230.4 0h93.866667c17.066667 0 34.133333 17.066667 34.133333 34.133333v42.666667c0 17.066667-17.066667 34.133333-34.133333 34.133333H264.533333c-17.066667 0-34.133333-17.066667-34.133333-34.133333v-42.666667c0-17.066667 17.066667-34.133333 34.133333-34.133333z" fill="#5CC887" p-id="75786"></path><path d="M494.933333 691.2H768c17.066667 0 34.133333 17.066667 34.133333 34.133333V768c0 17.066667-17.066667 34.133333-34.133333 34.133333H494.933333c-17.066667 0-34.133333-17.066667-34.133333-34.133333v-42.666667c0-17.066667 17.066667-34.133333 34.133333-34.133333z m-230.4 0h93.866667c17.066667 0 34.133333 17.066667 34.133333 34.133333V768c0 17.066667-17.066667 34.133333-34.133333 34.133333H264.533333c-17.066667 0-34.133333-17.066667-34.133333-34.133333v-42.666667c0-17.066667 17.066667-34.133333 34.133333-34.133333z" fill="#B0E8C3" p-id="75787"></path></svg>