<?xml version="1.0" standalone="no"?><!DOCTYPE svg PUBLIC "-//W3C//DTD SVG 1.1//EN" "http://www.w3.org/Graphics/SVG/1.1/DTD/svg11.dtd"><svg t="1773737354783" class="icon" viewBox="0 0 1024 1024" version="1.1" xmlns="http://www.w3.org/2000/svg" p-id="77111" xmlns:xlink="http://www.w3.org/1999/xlink" width="200" height="200"><path d="M247.466667 68.266667h537.6c59.733333 0 102.4 42.666667 102.4 102.4v691.2c0 59.733333-42.666667 102.4-102.4 102.4H247.466667c-59.733333 0-102.4-42.666667-102.4-102.4V170.666667c0-59.733333 42.666667-102.4 102.4-102.4z" fill="#FFFFFF" p-id="77112"></path><path d="M785.066667 989.866667H247.466667c-68.266667 0-128-59.733333-128-128V170.666667c0-68.266667 59.733333-128 128-128h537.6c68.266667 0 128 59.733333 128 128v691.2c0 68.266667-59.733333 128-128 128zM247.466667 93.866667c-42.666667 0-76.8 34.133333-76.8 76.8v691.2c0 42.666667 34.133333 76.8 76.8 76.8h537.6c42.666667 0 76.8-34.133333 76.8-76.8V170.666667c0-42.666667-34.133333-76.8-76.8-76.8H247.466667z" fill="#7D6CAB" p-id="77113"></path><path d="M597.333333 230.4H366.933333c-59.733333 0-102.4 42.666667-102.4 102.4v204.8c0 59.733333 42.666667 102.4 102.4 102.4H597.333333c59.733333 0 102.4-42.666667 102.4-102.4V332.8c0-59.733333-42.666667-102.4-102.4-102.4z m-230.4 51.2H597.333333c25.6 0 51.2 25.6 51.2 51.2v204.8c0 25.6-25.6 51.2-51.2 51.2H366.933333c-25.6 0-51.2-25.6-51.2-51.2V332.8c0-25.6 25.6-51.2 51.2-51.2z" fill="#AD9DDA" p-id="77114"></path><path d="M614.4 452.266667c-102.4 0-196.266667 85.333333-196.266667 196.266666s85.333333 196.266667 196.266667 196.266667 196.266667-85.333333 196.266667-196.266667-85.333333-196.266667-196.266667-196.266666z" fill="#9177D9" p-id="77115"></path></svg>