<?xml version="1.0" standalone="no"?><!DOCTYPE svg PUBLIC "-//W3C//DTD SVG 1.1//EN" "http://www.w3.org/Graphics/SVG/1.1/DTD/svg11.dtd"><svg t="1773737315962" class="icon" viewBox="0 0 1024 1024" version="1.1" xmlns="http://www.w3.org/2000/svg" p-id="76091" xmlns:xlink="http://www.w3.org/1999/xlink" width="200" height="200"><path d="M247.466667 68.266667h537.6c59.733333 0 102.4 42.666667 102.4 102.4v716.8c0 59.733333-42.666667 102.4-102.4 102.4H247.466667c-59.733333 0-102.4-42.666667-102.4-102.4V170.666667c0-59.733333 42.666667-102.4 102.4-102.4z" fill="#C4DCFF" p-id="76092"></path><path d="M247.466667 68.266667h110.933333v921.6h-59.733333c-85.333333 0-153.6-68.266667-153.6-153.6V170.666667c0-59.733333 42.666667-102.4 102.4-102.4z" fill="#679FF4" p-id="76093"></path><path d="M349.866667 59.733333h51.2v904.533334h-51.2zM725.333333 298.666667h-170.666666c-17.066667 0-25.6-8.533333-25.6-25.6s8.533333-25.6 25.6-25.6h170.666666c17.066667 0 25.6 8.533333 25.6 25.6s-8.533333 25.6-25.6 25.6z" fill="#397ABD" p-id="76094"></path><path d="M810.666667 989.866667h-597.333334c-59.733333 0-102.4-42.666667-102.4-102.4V145.066667C119.466667 85.333333 162.133333 42.666667 213.333333 42.666667h588.8c59.733333 0 102.4 42.666667 102.4 102.4v742.4c0 59.733333-42.666667 102.4-102.4 102.4z m-597.333334-896c-25.6 0-51.2 25.6-51.2 51.2v742.4c0 25.6 25.6 51.2 51.2 51.2h588.8c25.6 0 51.2-25.6 51.2-51.2V145.066667c0-25.6-25.6-51.2-51.2-51.2H213.333333z" fill="#397ABD" p-id="76095"></path></svg>